<?xml version="1.0" encoding="UTF-8" standalone="no"?>
<svg
   xmlns:dc="http://purl.org/dc/elements/1.1/"
   xmlns:cc="http://creativecommons.org/ns#"
   xmlns:rdf="http://www.w3.org/1999/02/22-rdf-syntax-ns#"
   xmlns:svg="http://www.w3.org/2000/svg"
   xmlns="http://www.w3.org/2000/svg"
   xmlns:sodipodi="http://sodipodi.sourceforge.net/DTD/sodipodi-0.dtd"
   xmlns:inkscape="http://www.inkscape.org/namespaces/inkscape"
   viewBox="0 0 295.96353 140.35358"
   version="1.1"
   id="svg22"
   sodipodi:docname="GroundStationProject_logo.svg"
   width="295.96353"
   height="140.35358"
   inkscape:export-filename="/home/4m1g0/Descargas/GroundStationProject_logo.png"
   inkscape:export-xdpi="183"
   inkscape:export-ydpi="183"
   inkscape:version="0.92.4 (unknown)">
  <metadata
     id="metadata28">
    <rdf:RDF>
      <cc:Work
         rdf:about="">
        <dc:format>image/svg+xml</dc:format>
        <dc:type
           rdf:resource="http://purl.org/dc/dcmitype/StillImage" />
        <dc:title></dc:title>
      </cc:Work>
    </rdf:RDF>
  </metadata>
  <defs
     id="defs26" />
  <sodipodi:namedview
     pagecolor="#ffffff"
     bordercolor="#666666"
     borderopacity="1"
     objecttolerance="10"
     gridtolerance="10"
     guidetolerance="10"
     inkscape:pageopacity="0"
     inkscape:pageshadow="2"
     inkscape:window-width="1920"
     inkscape:window-height="1016"
     id="namedview24"
     showgrid="false"
     inkscape:snap-bbox="true"
     inkscape:snap-bbox-edge-midpoints="true"
     inkscape:snap-bbox-midpoints="true"
     inkscape:bbox-nodes="true"
     inkscape:bbox-paths="true"
     inkscape:snap-smooth-nodes="true"
     inkscape:snap-global="false"
     fit-margin-top="5"
     fit-margin-left="5"
     fit-margin-right="5"
     fit-margin-bottom="5"
     inkscape:zoom="1.6647036"
     inkscape:cx="241.14081"
     inkscape:cy="118.14049"
     inkscape:window-x="0"
     inkscape:window-y="27"
     inkscape:window-maximized="1"
     inkscape:current-layer="svg22" />
  <path
     style="fill:#000000;stroke-width:0.91471171"
     inkscape:connector-curvature="0"
     id="path10"
     d="m 88.92284,51.959128 c -4.60656,6.29878 -7.27007,10.4098 -13.30117,16.22638 13.15555,4.44472 7.69321,12.55558 20.84903,17.00004 2.15684,-2.15349 5.31231,-15.9951 5.35008,-21.04515 -5.18542,-2.82013 -9.54785,-6.54273 -12.89756,-12.18113 z m -0.44438,4.25552 1.59912,2.14065 c -4.05097,5.94692 -7.80246,9.33398 -11.04065,10.59765 3.6773,-4.25624 4.91467,-6.16533 9.44176,-12.7386 z"
     sodipodi:nodetypes="ccccccccccc" />
  <g
     id="g942"
     transform="rotate(-27.52866,-382.68675,-213.13456)"
     style="fill:#000000">
    <g
       transform="matrix(0.98516822,0.44996188,-0.44996188,0.98516822,-190.30403,-444.73363)"
       id="g8"
       style="fill:#000000;stroke-width:0">
      <path
         d="m 378.31,493.49 c -1.052,-0.013 -2.107,0.06 -3.128,0.17999 l 0.06,2.751 c 0.99103,-0.12701 2.01,-0.19403 3.034,-0.18103 12.831,0.15698 23.11,11.576 22.939,25.532 -0.002,0.177 -9.8e-4,0.35602 -0.007,0.53204 l 2.501,-0.032 c 0.004,-0.15698 0.004,-0.31097 0.006,-0.46899 0.18896,-15.473 -11.18,-28.139 -25.405,-28.313 z"
         id="path2"
         inkscape:connector-curvature="0"
         style="fill:#000000" />
      <path
         d="m 377.56,500.45 c -0.797,-0.011 -1.598,0.045 -2.372,0.13599 l 0.046,2.529 c 0.75098,-0.097 1.524,-0.14795 2.301,-0.138 9.731,0.11902 16.959,8.338 16.829,18.923 -0.002,0.13397 -10e-4,0.27002 -0.005,0.40302 l 2.465,-0.025 c 0.003,-0.11902 0.003,-0.23498 0.004,-0.35498 0.14398,-11.735 -8.479,-21.341 -19.268,-21.473 z"
         id="path4"
         inkscape:connector-curvature="0"
         style="fill:#000000" />
      <path
         d="m 376.87,506.8 c -0.565,-0.007 -1.133,0.033 -1.682,0.098 l 0.033,2.426 c 0.53198,-0.0681 1.081,-0.104 1.631,-0.098 6.901,0.46399 10.915,5.09 11.138,12.786 -9.8e-4,0.095 0,0.19098 -0.003,0.28601 l 2.545,-0.017 c 0.002,-0.085 0.002,-0.16797 0.003,-0.25299 0.10205,-8.322 -6.013,-15.134 -13.664,-15.227 l -10e-4,-10e-4 z"
         id="path6"
         inkscape:connector-curvature="0"
         style="fill:#000000" />
    </g>
    <path
       d="m -70.458404,207.47118 c -11.439766,9.49087 -16.288657,25.46387 -10.950653,40.25112 5.338574,14.78802 19.25376,23.9594 34.118813,23.95375 l -23.168418,-64.20477 z m -1.845934,6.62515 1.893439,5.69616 c -5.65707,6.46355 -7.284221,11.47266 -9.630452,18.51476 -0.493658,-8.71438 1.399647,-17.01019 7.736544,-24.21114 z"
       id="path12"
       inkscape:connector-curvature="0"
       style="fill:#000000;stroke-width:0.91471171" />
    <g
       transform="matrix(0.31333384,0.85937156,-0.85937156,0.31333384,354.32352,-228.82161)"
       id="g18"
       style="fill:#000000;stroke-width:0">
      <rect
         x="324.70001"
         y="593.62"
         width="3.283"
         height="8.0811996"
         id="rect14"
         style="fill:#000000" />
      <path
         d="m 329.76,592.86 c 0,2.0921 -1.5264,3.7881 -3.4093,3.7881 -1.8829,0 -3.4093,-1.696 -3.4093,-3.7881 0,-2.0921 1.5264,-3.7881 3.4093,-3.7881 1.8829,0 3.4093,1.696 3.4093,3.7881 z"
         id="path16"
         inkscape:connector-curvature="0"
         style="fill:#000000" />
    </g>
  </g>
  <path
     style="fill:#000000"
     d="m 162.74977,73.602938 c -3.76544,0.0123 -7.41778,0.80374 -9.7207,2.37109 -6.14612,4.18302 -7.49023,7.00863 -7.49023,15.75 0,8.741372 1.34411,11.566982 7.49023,15.750002 4.60584,3.1347 14.60458,3.16796 20.12305,0.0664 10.60265,-5.95903 10.60265,-25.671842 0,-31.630862 -2.75924,-1.55078 -6.6369,-2.31897 -10.40235,-2.30664 z m 72.17383,0.12109 c -7.1261,0 -11.25428,1.88045 -13.44922,6.125 -3.33588,6.45088 0.61364,11.92217 10.84961,15.03125 7.10281,2.15741 8.83094,3.79592 6.70508,6.357422 -2.11234,2.54521 -5.89831,1.81349 -7.78711,-1.505862 -1.5585,-2.73887 -2.1582,-2.994 -7.06054,-3 -5.33833,-0.006 -5.35617,0.002 -4.70508,2.74219 0.86016,3.619442 3.67462,7.439642 6.66015,9.039072 1.54033,0.82521 5.21777,1.17993 10.24024,0.98828 7.6164,-0.29064 7.93344,-0.40445 11.25,-4.02344 3.7757,-4.12001 4.38667,-7.968812 1.99804,-12.587892 -1.68079,-3.2503 -4.05436,-4.62578 -12.08593,-7.00586 -6.41435,-1.90082 -8.08405,-4.41832 -3.29688,-4.9707 1.87252,-0.21606 3.09817,0.32157 3.99024,1.75 1.03539,1.65793 2.31781,2.06054 6.54687,2.06054 5.93301,0 6.33869,-0.71713 3.25586,-5.77343 -2.46871,-4.04906 -5.42029,-5.22657 -13.11133,-5.22657 z m -35.14453,0.10938 c -9.68519,-0.10945 -13.74023,2.95021 -13.74023,10.1914 0,5.36779 3.07685,8.33944 11.10547,10.73047 7.33758,2.18523 9.2147,4.07826 6.61718,6.675782 -2.1341,2.1341 -6.48508,0.90619 -7.91601,-2.234372 -0.96958,-2.12799 -1.79369,-2.47266 -5.90821,-2.47266 -2.62926,0 -4.98264,0.3375 -5.23046,0.75 -1.09124,1.81636 2.07087,7.842392 5.23046,9.966802 2.66559,1.79226 4.78892,2.2832 9.84961,2.2832 10.81388,0 16.25196,-4.14796 16.25196,-12.394532 0,-5.33763 -3.25868,-8.31881 -12,-10.98047 -7.77427,-2.3672 -9.95673,-4.84016 -4.79688,-5.43554 1.87252,-0.21606 3.09817,0.32157 3.99024,1.75 1.03539,1.65793 2.31781,2.06054 6.54687,2.06054 4.57884,0 5.25977,-0.25692 5.25977,-1.98437 0,-1.09133 -1.30178,-3.44202 -2.89453,-5.22461 -2.6925,-3.01343 -3.42053,-3.26709 -10.35352,-3.61719 -0.6962,-0.0352 -1.36604,-0.0572 -2.01172,-0.0645 z m -85.74023,0.89062 v 17 17.000002 h 6 6 v -7 -7.000002 h 6.5 6.5 v -4 -4 h -6.5 c -5.83333,0 -6.5,-0.20513 -6.5,-2 0,-1.82222 0.66667,-2 7.5,-2 h 7.5 v -4 -4 h -13.5 z m 150.45312,0 -5.97656,16.17383 c -3.2869,8.89518 -6.12526,16.545182 -6.30859,17.000002 -0.18334,0.45483 2.36779,0.82617 5.66992,0.82617 5.85789,0 6.01922,-0.0729 6.66211,-3 0.63968,-2.9124 0.82867,-3 6.45508,-3 5.63949,0 5.81069,0.0808 6.39453,3 0.58839,2.9419 0.7191,3 6.73241,3 5.43348,0 6.05434,-0.19935 5.44922,-1.75 -0.37561,-0.9625 -3.21855,-8.612502 -6.31836,-17.000002 l -5.63671,-15.25 h -6.56055 z m -100.91601,7.5 c 2.28602,0.0852 4.49454,1.45233 5.56836,4.23242 1.3255,3.4317 0.58459,11.03115 -1.24414,12.76368 -6.27789,5.947642 -13.71054,-1.4519 -11.28711,-11.23633 0.95588,-3.85927 4.02371,-5.86927 6.96289,-5.75977 z m 107.28906,3.65625 c 0.22648,0.0659 0.47931,0.6622 0.9375,1.84375 0.5332,1.375 1.28441,3.5125 1.66992,4.75 0.62264,1.99873 0.357,2.25 -2.38476,2.25 -2.86224,0 -3.03723,-0.19976 -2.41797,-2.75 0.36727,-1.5125 1.00444,-3.65 1.41601,-4.75 0.35367,-0.94524 0.55282,-1.40967 0.7793,-1.34375 z"
     id="path883"
     inkscape:connector-curvature="0" />
  <g
     id="g981"
     style="fill:#000000"
     transform="translate(180.03711,-190.58204)">
    <path
       inkscape:connector-curvature="0"
       id="path957"
       d="m -121.66602,287.49023 a 2.4002401,2.4002401 0 0 0 -2.41796,1.83789 l -3.61133,14.12305 a 2.4002401,2.4002401 0 1 0 4.65039,1.18945 l 3.61133,-14.125 a 2.4002401,2.4002401 0 0 0 -2.23243,-3.02539 z"
       style="color:#000000;font-style:normal;font-variant:normal;font-weight:normal;font-stretch:normal;font-size:medium;line-height:normal;font-family:sans-serif;font-variant-ligatures:normal;font-variant-position:normal;font-variant-caps:normal;font-variant-numeric:normal;font-variant-alternates:normal;font-feature-settings:normal;text-indent:0;text-align:start;text-decoration:none;text-decoration-line:none;text-decoration-style:solid;text-decoration-color:#000000;letter-spacing:normal;word-spacing:normal;text-transform:none;writing-mode:lr-tb;direction:ltr;text-orientation:mixed;dominant-baseline:auto;baseline-shift:baseline;text-anchor:start;white-space:normal;shape-padding:0;clip-rule:nonzero;display:inline;overflow:visible;visibility:visible;opacity:1;isolation:auto;mix-blend-mode:normal;color-interpolation:sRGB;color-interpolation-filters:linearRGB;solid-color:#000000;solid-opacity:1;vector-effect:none;fill:#000000;fill-opacity:1;fill-rule:evenodd;stroke:none;stroke-width:4.80000019;stroke-linecap:round;stroke-linejoin:miter;stroke-miterlimit:4;stroke-dasharray:none;stroke-dashoffset:0;stroke-opacity:1;color-rendering:auto;image-rendering:auto;shape-rendering:auto;text-rendering:auto;enable-background:accumulate" />
    <path
       inkscape:connector-curvature="0"
       id="path955"
       d="m -146.89453,269.67578 a 2.4002401,2.4002401 0 0 0 -0.40625,0.0352 l -8.07031,1.27539 a 2.4002401,2.4002401 0 1 0 0.74804,4.74023 l 8.07032,-1.27344 a 2.4002401,2.4002401 0 0 0 -0.3418,-4.77734 z"
       style="color:#000000;font-style:normal;font-variant:normal;font-weight:normal;font-stretch:normal;font-size:medium;line-height:normal;font-family:sans-serif;font-variant-ligatures:normal;font-variant-position:normal;font-variant-caps:normal;font-variant-numeric:normal;font-variant-alternates:normal;font-feature-settings:normal;text-indent:0;text-align:start;text-decoration:none;text-decoration-line:none;text-decoration-style:solid;text-decoration-color:#000000;letter-spacing:normal;word-spacing:normal;text-transform:none;writing-mode:lr-tb;direction:ltr;text-orientation:mixed;dominant-baseline:auto;baseline-shift:baseline;text-anchor:start;white-space:normal;shape-padding:0;clip-rule:nonzero;display:inline;overflow:visible;visibility:visible;opacity:1;isolation:auto;mix-blend-mode:normal;color-interpolation:sRGB;color-interpolation-filters:linearRGB;solid-color:#000000;solid-opacity:1;vector-effect:none;fill:#000000;fill-opacity:1;fill-rule:evenodd;stroke:none;stroke-width:4.80000019;stroke-linecap:round;stroke-linejoin:miter;stroke-miterlimit:4;stroke-dasharray:none;stroke-dashoffset:0;stroke-opacity:1;color-rendering:auto;image-rendering:auto;shape-rendering:auto;text-rendering:auto;enable-background:accumulate" />
    <path
       inkscape:connector-curvature="0"
       id="path953"
       d="m -112.69141,264.18945 -18.44921,2.75782 a 2.4003404,2.4003404 0 1 0 0.70898,4.74804 l 11.39258,-1.70312 -0.91016,3.7539 a 2.4002401,2.4002401 0 1 0 4.66406,1.13086 z"
       style="color:#000000;font-style:normal;font-variant:normal;font-weight:normal;font-stretch:normal;font-size:medium;line-height:normal;font-family:sans-serif;font-variant-ligatures:normal;font-variant-position:normal;font-variant-caps:normal;font-variant-numeric:normal;font-variant-alternates:normal;font-feature-settings:normal;text-indent:0;text-align:start;text-decoration:none;text-decoration-line:none;text-decoration-style:solid;text-decoration-color:#000000;letter-spacing:normal;word-spacing:normal;text-transform:none;writing-mode:lr-tb;direction:ltr;text-orientation:mixed;dominant-baseline:auto;baseline-shift:baseline;text-anchor:start;white-space:normal;shape-padding:0;clip-rule:nonzero;display:inline;overflow:visible;visibility:visible;opacity:1;isolation:auto;mix-blend-mode:normal;color-interpolation:sRGB;color-interpolation-filters:linearRGB;solid-color:#000000;solid-opacity:1;vector-effect:none;fill:#000000;fill-opacity:1;fill-rule:evenodd;stroke:none;stroke-width:4.80000019;stroke-linecap:round;stroke-linejoin:miter;stroke-miterlimit:4;stroke-dasharray:none;stroke-dashoffset:0;stroke-opacity:1;color-rendering:auto;image-rendering:auto;shape-rendering:auto;text-rendering:auto;enable-background:accumulate" />
    <path
       inkscape:connector-curvature="0"
       id="path951"
       d="m -129.29883,230.83984 a 2.4002401,2.4002401 0 0 0 -2.23437,3.31836 l 13.86328,34.89258 15.44336,4.68945 a 2.4002401,2.4002401 0 1 0 1.39453,-4.59179 l -13.23047,-4.01758 -13.00977,-32.74609 a 2.4002401,2.4002401 0 0 0 -2.22656,-1.54493 z"
       style="color:#000000;font-style:normal;font-variant:normal;font-weight:normal;font-stretch:normal;font-size:medium;line-height:normal;font-family:sans-serif;font-variant-ligatures:normal;font-variant-position:normal;font-variant-caps:normal;font-variant-numeric:normal;font-variant-alternates:normal;font-feature-settings:normal;text-indent:0;text-align:start;text-decoration:none;text-decoration-line:none;text-decoration-style:solid;text-decoration-color:#000000;letter-spacing:normal;word-spacing:normal;text-transform:none;writing-mode:lr-tb;direction:ltr;text-orientation:mixed;dominant-baseline:auto;baseline-shift:baseline;text-anchor:start;white-space:normal;shape-padding:0;clip-rule:nonzero;display:inline;overflow:visible;visibility:visible;opacity:1;isolation:auto;mix-blend-mode:normal;color-interpolation:sRGB;color-interpolation-filters:linearRGB;solid-color:#000000;solid-opacity:1;vector-effect:none;fill:#000000;fill-opacity:1;fill-rule:evenodd;stroke:none;stroke-width:4.80000019;stroke-linecap:round;stroke-linejoin:miter;stroke-miterlimit:4;stroke-dasharray:none;stroke-dashoffset:0;stroke-opacity:1;color-rendering:auto;image-rendering:auto;shape-rendering:auto;text-rendering:auto;enable-background:accumulate" />
    <path
       inkscape:connector-curvature="0"
       id="path949"
       d="m -129.2207,230.83984 a 2.4002401,2.4002401 0 0 0 -2.41016,1.84766 l -12.16406,48.51953 -27.21094,-7.59765 a 2.4002401,2.4002401 0 1 0 -1.29102,4.62304 l 31.95899,8.92383 13.36328,-53.30078 a 2.4002401,2.4002401 0 0 0 -2.24609,-3.01563 z"
       style="color:#000000;font-style:normal;font-variant:normal;font-weight:normal;font-stretch:normal;font-size:medium;line-height:normal;font-family:sans-serif;font-variant-ligatures:normal;font-variant-position:normal;font-variant-caps:normal;font-variant-numeric:normal;font-variant-alternates:normal;font-feature-settings:normal;text-indent:0;text-align:start;text-decoration:none;text-decoration-line:none;text-decoration-style:solid;text-decoration-color:#000000;letter-spacing:normal;word-spacing:normal;text-transform:none;writing-mode:lr-tb;direction:ltr;text-orientation:mixed;dominant-baseline:auto;baseline-shift:baseline;text-anchor:start;white-space:normal;shape-padding:0;clip-rule:nonzero;display:inline;overflow:visible;visibility:visible;opacity:1;isolation:auto;mix-blend-mode:normal;color-interpolation:sRGB;color-interpolation-filters:linearRGB;solid-color:#000000;solid-opacity:1;vector-effect:none;fill:#000000;fill-opacity:1;fill-rule:evenodd;stroke:none;stroke-width:4.80000019;stroke-linecap:round;stroke-linejoin:miter;stroke-miterlimit:4;stroke-dasharray:none;stroke-dashoffset:0;stroke-opacity:1;color-rendering:auto;image-rendering:auto;shape-rendering:auto;text-rendering:auto;enable-background:accumulate" />
    <path
       inkscape:connector-curvature="0"
       id="path947"
       d="m -86.908203,273.36523 a 2.4002401,2.4002401 0 0 0 -0.40625,0.0332 l -58.033207,8.85547 13.79688,37.00586 a 2.4002401,2.4002401 0 1 0 4.49805,-1.67579 l -11.73438,-31.4746 52.197266,-7.96485 a 2.4002401,2.4002401 0 0 0 -0.318359,-4.7793 z"
       style="color:#000000;font-style:normal;font-variant:normal;font-weight:normal;font-stretch:normal;font-size:medium;line-height:normal;font-family:sans-serif;font-variant-ligatures:normal;font-variant-position:normal;font-variant-caps:normal;font-variant-numeric:normal;font-variant-alternates:normal;font-feature-settings:normal;text-indent:0;text-align:start;text-decoration:none;text-decoration-line:none;text-decoration-style:solid;text-decoration-color:#000000;letter-spacing:normal;word-spacing:normal;text-transform:none;writing-mode:lr-tb;direction:ltr;text-orientation:mixed;dominant-baseline:auto;baseline-shift:baseline;text-anchor:start;white-space:normal;shape-padding:0;clip-rule:nonzero;display:inline;overflow:visible;visibility:visible;opacity:1;isolation:auto;mix-blend-mode:normal;color-interpolation:sRGB;color-interpolation-filters:linearRGB;solid-color:#000000;solid-opacity:1;vector-effect:none;fill:#000000;fill-opacity:1;fill-rule:evenodd;stroke:none;stroke-width:4.80000019;stroke-linecap:round;stroke-linejoin:miter;stroke-miterlimit:4;stroke-dasharray:none;stroke-dashoffset:0;stroke-opacity:1;color-rendering:auto;image-rendering:auto;shape-rendering:auto;text-rendering:auto;enable-background:accumulate" />
    <path
       inkscape:connector-curvature="0"
       id="path897"
       d="m -129.30469,229.86914 -1.70117,1.71094 -44.03125,44.34375 45.73828,45.90039 45.732424,-46.05664 z m 0.006,6.80469 38.960939,39.10156 -38.968749,39.24219 -38.96094,-39.09961 z"
       style="color:#000000;font-style:normal;font-variant:normal;font-weight:normal;font-stretch:normal;font-size:medium;line-height:normal;font-family:sans-serif;font-variant-ligatures:normal;font-variant-position:normal;font-variant-caps:normal;font-variant-numeric:normal;font-variant-alternates:normal;font-feature-settings:normal;text-indent:0;text-align:start;text-decoration:none;text-decoration-line:none;text-decoration-style:solid;text-decoration-color:#000000;letter-spacing:normal;word-spacing:normal;text-transform:none;writing-mode:lr-tb;direction:ltr;text-orientation:mixed;dominant-baseline:auto;baseline-shift:baseline;text-anchor:start;white-space:normal;shape-padding:0;clip-rule:nonzero;display:inline;overflow:visible;visibility:visible;opacity:1;isolation:auto;mix-blend-mode:normal;color-interpolation:sRGB;color-interpolation-filters:linearRGB;solid-color:#000000;solid-opacity:1;vector-effect:none;fill:#000000;fill-opacity:1;fill-rule:evenodd;stroke:none;stroke-width:4.80000019;stroke-linecap:round;stroke-linejoin:miter;stroke-miterlimit:4;stroke-dasharray:none;stroke-dashoffset:0;stroke-opacity:1;color-rendering:auto;image-rendering:auto;shape-rendering:auto;text-rendering:auto;enable-background:accumulate" />
  </g>
  <text
     xml:space="preserve"
     style="font-style:normal;font-variant:normal;font-weight:bold;font-stretch:normal;font-size:20.18400002px;line-height:42.05051804px;font-family:'Liberation Sans';-inkscape-font-specification:'Liberation Sans, Bold';font-variant-ligatures:normal;font-variant-caps:normal;font-variant-numeric:normal;font-feature-settings:normal;text-align:center;letter-spacing:0px;word-spacing:0px;writing-mode:lr-tb;text-anchor:middle;fill:#000000;fill-opacity:1;stroke:none;stroke-width:1.68202066px;stroke-linecap:butt;stroke-linejoin:miter;stroke-opacity:1"
     x="180.75476"
     y="131.16499"
     id="text1016"><tspan
       sodipodi:role="line"
       id="tspan1014"
       x="180.75476"
       y="131.16499"
       style="font-style:normal;font-variant:normal;font-weight:bold;font-stretch:normal;font-size:20.18400002px;font-family:'Liberation Sans';-inkscape-font-specification:'Liberation Sans, Bold';font-variant-ligatures:normal;font-variant-caps:normal;font-variant-numeric:normal;font-feature-settings:normal;text-align:center;writing-mode:lr-tb;text-anchor:middle;stroke-width:1.68202066px">Ground Station Project</tspan></text>
</svg>
